<svg width="25" height="25" viewBox="0 0 25 25" fill="none" xmlns="http://www.w3.org/2000/svg">
<path fill-rule="evenodd" clip-rule="evenodd" d="M19.2852 17.5896L23.6954 21.9998C24.164 22.4684 24.164 23.2282 23.6954 23.6969C23.2268 24.1655 22.467 24.1655 21.9983 23.6969L17.5881 19.2866C15.7405 20.7646 13.3969 21.6483 10.8469 21.6483C4.8822 21.6483 0.046875 16.813 0.046875 10.8483C0.046875 4.88366 4.8822 0.0483398 10.8469 0.0483398C16.8116 0.0483398 21.6469 4.88366 21.6469 10.8483C21.6469 13.3984 20.7631 15.742 19.2852 17.5896ZM10.8469 19.2483C15.4861 19.2483 19.2469 15.4875 19.2469 10.8483C19.2469 6.20915 15.4861 2.44834 10.8469 2.44834C6.20768 2.44834 2.44687 6.20915 2.44687 10.8483C2.44687 15.4875 6.20768 19.2483 10.8469 19.2483Z" fill="#888888"/>
</svg>
